<svg width="104" height="63" viewBox="0 0 104 63" fill="none" xmlns="http://www.w3.org/2000/svg">
<path d="M7.77875 56.6845L25.0447 31.7545L52.9687 45.8225L68.1177 12.9255L98.7207 34.8055" stroke="#F05454" stroke-width="3" stroke-linecap="round"/>
<path fill-rule="evenodd" clip-rule="evenodd" d="M30.3467 32.5555C30.3556 33.1411 30.2479 33.7226 30.03 34.2662C29.8121 34.8097 29.4882 35.3046 29.0773 35.7218C28.6664 36.1391 28.1765 36.4704 27.6364 36.6967C27.0962 36.9229 26.5164 37.0394 25.9307 37.0395C25.3451 37.0395 24.7653 36.9231 24.225 36.697C23.6848 36.471 23.1949 36.1397 22.7839 35.7225C22.3729 35.3054 22.0489 34.8106 21.8308 34.2671C21.6128 33.7236 21.505 33.1421 21.5137 32.5565C21.5311 31.3967 22.0039 30.2902 22.8302 29.4761C23.6564 28.662 24.7698 28.2056 25.9297 28.2055C27.0897 28.2053 28.2031 28.6615 29.0296 29.4754C29.856 30.2893 30.3291 31.3957 30.3467 32.5555ZM56.5427 44.7105C56.5517 45.2961 56.4441 45.8776 56.2262 46.4212C56.0083 46.9648 55.6845 47.4596 55.2736 47.877C54.8628 48.2943 54.373 48.6257 53.8328 48.852C53.2927 49.0782 52.7129 49.1948 52.1272 49.195C51.5416 49.1951 50.9618 49.0788 50.4215 48.8527C49.8813 48.6267 49.3913 48.2955 48.9803 47.8784C48.5692 47.4613 48.2452 46.9666 48.027 46.423C47.8089 45.8795 47.7011 45.2981 47.7097 44.7125C47.7269 43.5527 48.1997 42.4462 49.0258 41.632C49.852 40.8178 50.9653 40.3612 52.1252 40.361C53.2852 40.3607 54.3987 40.8167 55.2252 41.6306C56.0518 42.4444 56.525 43.5507 56.5427 44.7105ZM101.739 33.2785C101.739 34.4501 101.273 35.5737 100.445 36.4022C99.6164 37.2306 98.4928 37.696 97.3212 37.696C96.1496 37.696 95.026 37.2306 94.1976 36.4022C93.3691 35.5737 92.9037 34.4501 92.9037 33.2785C92.9037 32.1069 93.3691 30.9833 94.1976 30.1549C95.026 29.3264 96.1496 28.861 97.3212 28.861C98.4928 28.861 99.6164 29.3264 100.445 30.1549C101.273 30.9833 101.739 32.1069 101.739 33.2785ZM72.5347 12.9245C72.5347 13.5046 72.4205 14.0789 72.1985 14.6148C71.9765 15.1507 71.6512 15.6376 71.241 16.0478C70.8309 16.458 70.3439 16.7833 69.808 17.0053C69.2721 17.2273 68.6978 17.3415 68.1177 17.3415C67.5377 17.3415 66.9633 17.2273 66.4274 17.0053C65.8915 16.7833 65.4046 16.458 64.9944 16.0478C64.5843 15.6376 64.2589 15.1507 64.037 14.6148C63.815 14.0789 63.7007 13.5046 63.7007 12.9245C63.7007 11.753 64.1661 10.6296 64.9944 9.80122C65.8228 8.97287 66.9463 8.50751 68.1177 8.50751C69.2892 8.50751 70.4127 8.97287 71.241 9.80122C72.0694 10.6296 72.5347 11.753 72.5347 12.9245ZM11.0947 56.9745C11.1035 57.5601 10.9958 58.1416 10.7778 58.6851C10.5598 59.2287 10.2359 59.7235 9.82493 60.1407C9.41395 60.5579 8.9241 60.8892 8.38388 61.1154C7.84367 61.3415 7.26387 61.458 6.67823 61.458C6.09259 61.458 5.51279 61.3415 4.97258 61.1154C4.43236 60.8892 3.94251 60.5579 3.53153 60.1407C3.12055 59.7235 2.79664 59.2287 2.57864 58.6851C2.36064 58.1416 2.25292 57.5601 2.26173 56.9745C2.27918 55.8147 2.75217 54.7083 3.57853 53.8943C4.40488 53.0803 5.51828 52.624 6.67823 52.624C7.83818 52.624 8.95158 53.0803 9.77794 53.8943C10.6043 54.7083 11.0773 55.8147 11.0947 56.9745Z" fill="#30475E" stroke="#F05454" stroke-width="3"/>
<path d="M29.0178 50.4895L46.2838 25.5595L74.2078 39.6265L89.3568 6.72949" stroke="#5B9DFF" stroke-width="3" stroke-linecap="round"/>
<path fill-rule="evenodd" clip-rule="evenodd" d="M50.7007 27.2455C50.7096 27.8311 50.602 28.4126 50.384 28.9561C50.1661 29.4997 49.8422 29.9945 49.4313 30.4118C49.0204 30.8291 48.5305 31.1604 47.9904 31.3867C47.4502 31.6129 46.8704 31.7294 46.2847 31.7295C45.6991 31.7295 45.1193 31.6131 44.5791 31.387C44.0388 31.161 43.5489 30.8297 43.1379 30.4125C42.7269 29.9954 42.4029 29.5006 42.1848 28.9571C41.9668 28.4135 41.859 27.8321 41.8677 27.2465C41.8852 26.0867 42.3582 24.9803 43.1845 24.1663C44.0109 23.3522 45.1243 22.896 46.2842 22.896C47.4442 22.896 48.5576 23.3522 49.3839 24.1663C50.2103 24.9803 50.6833 26.0857 50.7007 27.2455ZM77.7817 37.6315C77.7906 38.2171 77.6828 38.7986 77.4648 39.3421C77.2468 39.8857 76.9229 40.3805 76.5119 40.7977C76.101 41.2149 75.6111 41.5462 75.0709 41.7723C74.5307 41.9985 73.9509 42.115 73.3652 42.115C72.7796 42.115 72.1998 41.9985 71.6596 41.7723C71.1194 41.5462 70.6295 41.2149 70.2185 40.7977C69.8076 40.3805 69.4836 39.8857 69.2656 39.3421C69.0476 38.7986 68.9399 38.2171 68.9487 37.6315C68.9662 36.4717 69.4392 35.3653 70.2655 34.5513C71.0919 33.7372 72.2053 33.281 73.3652 33.281C74.5252 33.281 75.6386 33.7372 76.4649 34.5513C77.2913 35.3653 77.7643 36.4717 77.7817 37.6315ZM93.7737 6.7295C93.7737 7.90096 93.3084 9.02444 92.48 9.85279C91.6517 10.6811 90.5282 11.1465 89.3567 11.1465C88.1853 11.1465 87.0618 10.6811 86.2334 9.85279C85.4051 9.02444 84.9397 7.90096 84.9397 6.7295C84.9397 5.55804 85.4051 4.43456 86.2334 3.60621C87.0618 2.77786 88.1853 2.3125 89.3567 2.3125C90.5282 2.3125 91.6517 2.77786 92.48 3.60621C93.3084 4.43456 93.7737 5.55804 93.7737 6.7295ZM32.3337 50.7795C32.3426 51.3651 32.235 51.9466 32.017 52.4901C31.7991 53.0337 31.4752 53.5285 31.0643 53.9458C30.6534 54.3631 30.1635 54.6944 29.6234 54.9207C29.0832 55.1469 28.5034 55.2634 27.9177 55.2635C27.3321 55.2635 26.7523 55.1471 26.2121 54.921C25.6718 54.695 25.1819 54.3637 24.7709 53.9465C24.3599 53.5294 24.0359 53.0346 23.8178 52.4911C23.5998 51.9475 23.492 51.3661 23.5007 50.7805C23.5181 49.6207 23.9909 48.5142 24.8172 47.7001C25.6434 46.886 26.7568 46.4296 27.9167 46.4295C29.0767 46.4293 30.1901 46.8855 31.0166 47.6994C31.843 48.5133 32.3162 49.6197 32.3337 50.7795Z" fill="#30475E" stroke="#5B9DFF" stroke-width="3"/>
</svg>
